<svg width="732" height="125" viewBox="0 0 732 125" fill="none" xmlns="http://www.w3.org/2000/svg">
<path d="M210.503 54.7026C201.909 52.6956 194.465 50.6886 194.465 44.6675C194.465 39.0843 199.902 35.6359 208.642 35.6359C217.382 35.6359 225.118 39.212 229.132 44.0836L234.861 35.052C228.986 29.4688 220.392 25.1628 208.496 25.1628C191.601 25.1628 182.131 34.6141 182.131 45.6528C182.131 60.5595 195.888 63.6977 207.639 66.4164C216.524 68.4234 224.406 70.7223 224.406 77.5827C224.406 83.4578 219.243 87.4719 209.5 87.4719C199.756 87.4719 191.017 82.7463 186.291 77.5827L180.124 87.034C187.149 94.2046 197.311 97.7807 208.916 97.7807C227.107 97.7807 236.85 88.4754 236.85 76.5792C236.85 60.669 222.527 57.3847 210.485 54.6661L210.503 54.7026Z" fill="#0E1539"/>
<path d="M342.237 81.195L320.597 26.8959H291.094L257.723 62.0006V0.549072H244.823V96.1018H257.723V91.7958C257.723 82.2533 261.481 73.094 268.177 66.3066L291.24 96.1018H307.57L277.483 58.2785L306.968 27.2243L331.563 87.5445C333.971 93.4744 333.898 100.116 331.326 105.973C329.173 111.136 326.035 112.705 321.291 112.705C319.576 112.705 317.131 112.267 315.562 111.556L313.555 123.16C315.562 123.726 319.43 124.164 321.583 124.164C331.618 124.018 339.208 120.15 343.642 109.257L377.743 26.8776H363.84L342.2 81.1768L342.237 81.195Z" fill="#0E1539"/>
<path d="M475.011 26.8958L460.396 77.1809L448.025 39.4305C445.58 31.9498 438.61 26.8958 430.747 26.8958L414.271 77.1809L399.656 26.8958H384.038L405.531 96.0834H421.295L437.333 45.3786L453.371 96.0834H469.136L490.629 26.8958H475.011Z" fill="#0E1539"/>
<path d="M525.169 25.1809C503.256 25.1809 489.645 41.6568 489.645 61.4169C489.645 81.1769 503.256 97.7988 525.169 97.7988C547.082 97.7988 560.839 81.3229 560.839 61.4169C560.839 41.5108 547.374 25.1809 525.169 25.1809ZM525.169 84.4794C512.415 84.4794 505.263 73.7327 505.263 61.4169C505.263 49.101 512.433 38.5003 525.169 38.5003C537.904 38.5003 545.221 49.247 545.221 61.4169C545.221 73.5867 538.05 84.4794 525.169 84.4794Z" fill="#0E1539"/>
<path d="M583.063 37.0769V26.914H568.028V96.1017H583.063V58.4426C583.063 48.9366 590.142 40.5983 599.63 39.8502C600.031 39.8137 600.432 39.7955 600.834 39.7955C602.695 39.7955 604.264 39.9415 605.559 40.2151V25.3267C596.528 25.3267 588.226 30.4902 583.063 37.0769Z" fill="#0E1539"/>
<path d="M731.674 82.9831H696.569L724.393 46.6195C728.736 40.945 731.09 33.9752 731.09 26.8229H676.79V26.8959H658.289L627.783 60.2672V0.549072H612.748V96.1018H627.783V91.2484C627.783 82.4175 631.231 73.9333 637.38 67.5838L658.581 96.0835H677.484L677.429 96.0106H731.655V82.9831H731.674ZM648.145 58.2785L676.809 27.0418V39.9963H711.056L676.809 84.6982V95.1895L648.145 58.2785Z" fill="#0E1539"/>
<path d="M102.238 27.3372C102.052 27.3372 101.866 27.3372 101.68 27.3372C97.9568 12.2629 84.415 1.07422 68.3138 1.07422C52.2126 1.07422 38.6708 12.2629 34.948 27.3372H34.3896C15.4264 27.3372 0 42.8563 0 61.9333C0 81.0102 15.4264 96.5059 34.3663 96.5059C48.862 96.5059 58.4716 88.8985 65.8474 79.8398C69.3841 75.4861 72.4322 70.8046 75.2243 66.4509C84.2289 52.5235 90.3483 43.9798 102.215 43.9798C112.034 43.9798 120.038 52.0085 120.038 61.9098C120.038 71.8111 112.057 79.8398 102.215 79.8398H77.0624V96.5059H102.68C121.411 96.225 136.581 80.823 136.581 61.9333C136.581 43.0435 121.155 27.3606 102.215 27.3606L102.238 27.3372ZM64.1722 53.0853C63.2182 54.5365 62.2642 55.9878 61.38 57.3922C58.9602 61.1374 56.7498 64.4612 54.5859 67.3638C48.6759 75.2754 43.0684 79.8398 34.3896 79.8398C24.5706 79.8398 16.5666 71.8111 16.5666 61.9098C16.5666 52.0085 24.5474 43.9798 34.3896 43.9798H50.4675L50.514 35.6468C50.514 25.7689 58.4949 17.7168 68.3371 17.7168C76.6669 17.7168 83.6472 23.4984 85.6017 31.2931C76.2015 36.1852 69.6633 44.8225 64.1954 53.0619L64.1722 53.0853Z" fill="#0E1539"/>
</svg>

